<?xml version="1.0" encoding="UTF-8"?>
<svg xmlns="http://www.w3.org/2000/svg" version="1.1" viewBox="0 0 16 16">
  <defs>
    <style>
      .cls-1 {
        fill: #afc136;
      }

      .cls-2 {
        fill: #fff;
      }

      .cls-3 {
        opacity: 0;
      }

      .cls-3, .cls-4 {
        fill: #00aba0;
      }

      .cls-5 {
        fill: #fdfbfd;
      }

      .cls-6 {
        fill: #204ca1;
      }

      .cls-7 {
        fill: #04aca0;
      }
    </style>
  </defs>
  <!-- Generator: Adobe Illustrator 28.7.1, SVG Export Plug-In . SVG Version: 1.2.0 Build 142)  -->
  <g>
    <g id="Layer_1">
      <path class="cls-4" d="M4.87,5.89c.09,0,.2,0,.25.08.07.1-.29.17-.34.18-.17.04-.32.13-.47.22-.38.22-.74.48-1.07.76-.19.16-.34.34-.52.5l-.31.28c-.17.16.01.29.13.4.11.1.21.2.32.3.24.23.49.48.79.63.16.12.33.23.5.34.14.09.27.17.41.24.09.05.18.11.29.12.05,0,.2-.02.23.03.08.17-.74.1-.78.1-.4-.05-.8-.14-1.17-.31-.33-.15-.6-.39-.88-.62-.32-.26-.65-.53-.97-.79-.1-.09-.2-.18-.31-.25-.07-.04-.23-.14-.12-.23.33-.26.64-.53.97-.79.56-.44,1.2-.86,1.87-1.08.24-.08.5-.12.75-.13.14,0,.27,0,.41.01.01,0,.03,0,.04,0Z"/>
      <path class="cls-4" d="M11.22,5.89c-.09,0-.2,0-.25.08-.07.1.29.17.34.18.17.04.32.13.47.22.38.22.74.48,1.07.76.19.16.34.34.52.5l.31.28c.17.16-.01.29-.13.4-.11.1-.21.2-.32.3-.24.23-.49.48-.79.63-.16.12-.33.23-.5.34-.14.09-.27.17-.41.24-.09.05-.18.11-.29.12-.05,0-.2-.02-.23.03-.08.17.74.1.78.1.4-.05.8-.14,1.17-.31.33-.15.6-.39.88-.62.32-.26.65-.53.97-.79.1-.09.2-.18.31-.25.07-.04.23-.14.12-.23-.33-.26-.64-.53-.97-.79-.56-.44-1.2-.86-1.87-1.08-.24-.08-.5-.12-.75-.13-.14,0-.27,0-.41.01-.01,0-.03,0-.04,0Z"/>
      <path class="cls-4" d="M6.05,4.85c0,.09,0,.2.07.25.09.07.17-.3.18-.35.04-.17.13-.33.21-.48.21-.39.47-.75.74-1.1.15-.19.34-.35.49-.54l.27-.32c.15-.18.28.01.39.13.1.11.2.22.29.33.22.25.47.51.62.81.11.17.22.34.33.51.08.14.17.28.24.42.04.09.1.19.12.29,0,.05-.02.21.03.23.17.08.1-.76.09-.8-.04-.41-.14-.82-.3-1.19-.14-.34-.38-.62-.6-.9-.26-.33-.52-.66-.78-1-.08-.11-.17-.2-.24-.32-.04-.07-.13-.24-.22-.12-.26.33-.52.66-.77.99-.43.57-.84,1.23-1.05,1.92-.08.25-.12.51-.13.77,0,.14,0,.28.01.42,0,.01,0,.03,0,.04Z"/>
      <path class="cls-4" d="M6.05,11c0-.09,0-.2.07-.25.09-.07.17.3.18.35.04.17.13.33.21.48.21.39.47.75.74,1.1.15.19.34.35.49.54l.27.32c.15.18.28-.01.39-.13.1-.11.2-.22.29-.33.22-.25.47-.51.62-.81.11-.17.22-.34.33-.51.08-.14.17-.28.24-.42.04-.09.1-.19.12-.29,0-.05-.02-.21.03-.23.17-.08.1.76.09.8-.04.41-.14.82-.3,1.19-.14.34-.38.62-.6.9-.26.33-.52.66-.78,1-.08.11-.17.2-.24.32-.04.07-.13.24-.22.12-.26-.33-.52-.66-.77-.99-.43-.57-.84-1.23-1.05-1.92-.08-.25-.12-.51-.13-.77,0-.14,0-.28.01-.42,0-.01,0-.03,0-.04Z"/>
      <path class="cls-1" d="M3.02,7.99s.62-.6,1.33-.98c0,0,.24-.13.37-.28s.06.05.06.05c0,0-.42,1.5-.08,2.26,0,0,.37.54-.1.15s-.48-.22-1.53-1.1c0,0-.1-.07-.05-.1Z"/>
      <path class="cls-1" d="M13.08,8s-.62-.6-1.33-.98c0,0-.24-.13-.37-.28s-.06.05-.06.05c0,0,.42,1.5.08,2.26,0,0-.37.54.1.15s.48-.22,1.53-1.1c0,0,.1-.07.05-.1Z"/>
      <path class="cls-1" d="M8.08,2.94s.58.63.96,1.36c0,0,.13.25.27.38s-.05.06-.05.06c0,0-1.47-.43-2.2-.08,0,0-.53.37-.15-.11s.21-.49,1.07-1.57c0,0,.07-.1.1-.05Z"/>
      <path class="cls-1" d="M8.08,13.08s.58-.63.96-1.36c0,0,.13-.25.27-.38s-.05-.06-.05-.06c0,0-1.47.43-2.2.08,0,0-.53-.37-.15.11s.21.49,1.07,1.57c0,0,.07.1.1.05Z"/>
      <path class="cls-7" d="M10.74,5.41s.12-1.2-.22-1.94c0,0,.53-.33,1.49-.28.35,0,.56-.04.56-.04,0,0,.19-.06.16.2s0,.93,0,.93c0,0-.02.86-.23,1.19,0,0-.86-.14-1.76-.06Z"/>
      <path class="cls-7" d="M5.46,5.43s-.12-1.2.22-1.94c0,0-.53-.33-1.49-.28-.35,0-.56-.04-.56-.04,0,0-.19-.06-.16.2s0,.93,0,.93c0,0,.02.86.23,1.19,0,0,.86-.14,1.76-.06Z"/>
      <path class="cls-7" d="M10.78,10.56s.12,1.2-.22,1.94c0,0,.53.33,1.49.28.35,0,.56.04.56.04,0,0,.19.06.16-.2s0-.93,0-.93c0,0-.02-.86-.23-1.19,0,0-.86.14-1.76.06Z"/>
      <path class="cls-7" d="M5.34,10.54s-.12,1.2.22,1.94c0,0-.53.33-1.49.28-.35,0-.56.04-.56.04,0,0-.19.06-.16-.2s0-.93,0-.93c0,0,.02-.86.23-1.19,0,0,.86.14,1.76.06Z"/>
      <ellipse class="cls-6" cx="8.05" cy="8.06" rx="3.04" ry="3.11"/>
      <path class="cls-2" d="M5.21,7.37s.39-1.11.61-1.24l.27-.3s.11-.1.16,0,.37.36.51.27.09.11.09.11c0,0,.01.15.15.16.09-.04.04.08.04.08,0,0,.2.26-.06.29s-.2.07-.2.07c0,0,.03.04-.12.01s-.11.12-.11.12c0,0,0,.05-.13.05,0,0-.25.2-.28.35s-.07.13-.07.13c0,0-.31-.05-.45.16,0,0,0,.09-.13.05,0,0-.15.03-.03.13s.21.29.6.39c0,0,.14.02.24-.02s.14.02.14.02c0,0,.12.15.3.11s.22.08.22.08c0,0-.07.16.09.17.07,0,.1,0,.07.1s.12.2.12.2c0,0,.11.19.33.12s-.09.14-.09.14c0,0-.07.18.06.3,0,0,.03.04-.03.08,0,0-.32.26-.34.4s-.02.29-.02.29c0,0-.37.22-.22.33s.09.13.09.13c0,0-.48-.05-.57-.52-.04-.14-.04-.49-.04-.49,0,0,.03-.12-.13-.2s-.42-.25-.39-.49.14-.38.03-.47c-.13-.03-.34-.12-.47-.27s-.35-.41-.28-.65.05-.21.05-.21Z"/>
      <path class="cls-2" d="M5.73,7.73s-.01,0-.02,0c0,0-.02.02-.02.03-.01.01-.03.03-.03.04,0,.02.03.02.05.02.01,0,.02,0,.03,0,.02,0,.03-.02.05-.03.02,0,.03-.02.05-.03.04-.02.08-.04.13-.04.1,0,.1-.07.1-.07,0,0,0-.02-.01-.02-.04-.02-.09.02-.12.04-.05.02-.1.05-.15.05,0,0-.02,0-.03,0,0,0-.01,0-.01,0Z"/>
      <path class="cls-2" d="M6.25,8.06s0-.02,0-.03c0-.02-.01-.04-.01-.06,0-.02,0-.04.01-.05.02-.01.05,0,.07,0,0,0,.02,0,.02.02,0,.01,0,.03,0,.04,0,.04.05.06.09.06.03,0,.05,0,.08,0,.02,0,.03,0,.05.02.02.01.03.03.04.04.01.01.02.02.03.03,0,0,.02.01.02.02,0,.01,0,.03,0,.04,0,.03-.02.03-.05.03-.01,0-.03,0-.04-.02-.01-.01-.02-.03-.03-.04l-.02-.03s-.02-.02-.03-.03c-.02,0-.05,0-.07,0-.02,0-.03,0-.05,0-.04,0-.08-.02-.1-.05,0,0,0,0,0,0Z"/>
      <path class="cls-6" d="M6.23,6.36s-.01,0-.02,0c-.02,0-.04,0-.05,0-.05,0-.04-.04,0-.07.02-.02.04-.03.06-.04s.12-.08.14-.05c.01.02-.01.05-.01.06,0,.02.03.03.04.04.03,0,.07,0,.1,0,.02,0,.04,0,.05,0,0,0,.02,0,.02.02,0,0,0,.02,0,.02.03,0,.05,0,.08,0,.05.01.03.07.03.11,0,.02,0,.04,0,.06-.01.04-.04,0-.07.01-.02,0-.03.02-.04.04,0,0,0,.02,0,.02,0,.02,0,.03,0,.05,0,.02-.02.03-.04.05-.01,0-.02.01-.03.01-.01,0-.02,0-.03.01,0,0,0,.01-.02.02-.03.01-.05-.01-.07-.03-.04-.03-.07-.08-.07-.13,0-.04,0-.07.02-.11.01-.03.05-.07.01-.1-.03-.02-.05,0-.08.01Z"/>
      <path class="cls-2" d="M6.42,5.75s-.14-.04,0-.12.19-.15.19-.15c0,0,.04-.03.12.05s.29.19.12.27-.02.12-.02.12c0,0,.45.25-.03.08,0,0-.14,0-.09-.2s-.06.05-.06.05c0,0-.03.17-.23.06s0-.1,0-.1c0,0,.17-.04,0-.06Z"/>
      <path class="cls-2" d="M6.86,5.36s-.24.1.03.16c0,0,.04-.02-.01-.08s.1.04.1.04c0,0,.05.09-.09.09s.15.14.15.14c0,0,.06,0,.01-.09s.1-.02.1-.02c0,0,.24.08.14.25s.06.22.06.22c0,0,0,.28.09.02,0,0,.24-.09.41-.37s.25-.35.25-.35c0,0,.39-.29.01-.25s-.67.14-.85.11-.42.14-.42.14Z"/>
      <path class="cls-2" d="M9.68,5.77s.3.1.12-.1-.3-.24-.39-.14-.18.12-.18.12c0,0-.07-.05-.16.07s-.23.46-.35.4-.15.07-.15.07c0,0,.08.11-.06.15s-.1.12,0,.1.27.21.27.21c0,0,.03.1-.1.12s-.13.07-.13.07l-.21.22s-.09.18.11.13c0,0,.21-.34.24-.16,0,0,.02.09-.22.29s-.14.41-.14.41c0,0,0,.09-.1.1s.03.3.03.3c0,0,.09.05.07.23s.3.24.3.24c0,0,.12-.01.25-.11s.27-.07.27-.07c.12.02-.02.33-.04.38,0,0,.09.16.1.18.03.08.03.17,0,.24-.09.2,0,.4,0,.4,0,0,0,.48.12.58s.3.02.3.02c0,0,.2-.04.23-.25s.19-.17.19-.17c0,0,.14-.07-.06-.33s.11.04.11.04c0,0,.07.19.1-.18s.01-.52.17-.63.13-.36.06-.4-.32-.15-.33-.35.04-.25-.06-.35.03-.04.03-.04c0,0,.26.18.14.38,0,0,0,.13.25.33s.24-.06.24-.06c0,0,0-.21.2-.32s.05-.47.05-.47c0,0-.23-.91-.81-1.52,0,0-.38-.1-.6,0-.24.04-.09-.09-.09-.09,0,0,.21-.03.08-.08s.06-.04.06-.04c0,0,.07-.01.09.08Z"/>
      <path class="cls-3" d="M8.6,5.84s-.06.13-.1-.03.22-.16.22-.16c0,0,.33.05.1.12,0,0-.19-.03-.22.07Z"/>
      <path class="cls-6" d="M9.07,7.18s.09-.03,0-.08c0,0-.27.03-.22-.05s.22-.07.22-.07c0,0,.28,0,.14.1s.09.05.09.05c0,0,.05-.16.3-.09s.27-.04.27-.04c0,0,.07-.02-.08-.12s-.14-.11.01-.1c0,0,.03-.16.11-.02,0,0,.03.04,0,.07,0,0,.58.14.22.19,0,0-.29-.1-.19.07s-.1.08-.1.08c0,0-.17-.12-.12.08s-.16.11-.16.11c0,0,.14.18-.06.06,0,0-.13-.23-.21-.13s-.08-.02-.08-.02c0,0-.02-.09-.12-.07s-.11,0-.03-.02Z"/>
      <path class="cls-6" d="M10.61,7.71s.15.07-.03.07-.05-.17-.05-.17c0,0,.17-.23.23-.12,0,0-.19.11-.1.13s.13-.03.16-.08.05.04.05.04c0,0-.05.04-.03.1s0,.08-.06.07-.06.02-.1-.06-.13-.03-.07.02Z"/>
      <path class="cls-6" d="M9.06,6.32s.07.35.15.16.1.04.12,0,.03-.05,0-.12,0-.11.07-.13.03-.1-.02-.15-.12-.17-.13,0-.15.08-.15.08c0,0-.2,0-.04.15Z"/>
      <path class="cls-5" d="M10.35,9.47s-.09.14-.1-.1.19-.33.19-.33c0,0,.12-.08.06.12s-.18-.01-.15.31Z"/>
    </g>
  </g>
</svg>